<?xml version="1.0" standalone="no"?>
<!DOCTYPE svg PUBLIC "-//W3C//DTD SVG 20010904//EN"
 "http://www.w3.org/TR/2001/REC-SVG-20010904/DTD/svg10.dtd">
<svg version="1.0" xmlns="http://www.w3.org/2000/svg"
 width="512.000000pt" height="512.000000pt" viewBox="0 0 512.000000 512.000000"
 preserveAspectRatio="xMidYMid meet">
<metadata>
Created by potrace 1.11, written by Peter Selinger 2001-2013
</metadata>
<g transform="translate(0.000000,512.000000) scale(0.100000,-0.100000)"
fill="#000000" stroke="none">
<path d="M2855 3949 c-154 -26 -217 -37 -260 -43 -11 -2 -42 -7 -70 -11 -27
-5 -57 -9 -65 -10 -8 -1 -26 -5 -40 -8 -14 -3 -43 -8 -65 -11 -22 -3 -64 -10
-93 -15 -29 -6 -56 -10 -60 -10 -4 1 -9 0 -12 -1 -9 -3 -44 -9 -85 -14 -22 -3
-51 -8 -65 -11 -14 -3 -41 -8 -60 -11 -19 -3 -44 -7 -55 -9 -11 -1 -38 -6 -60
-9 -22 -4 -61 -11 -88 -16 -26 -6 -51 -9 -55 -8 -4 1 -23 -2 -42 -6 -50 -10
-73 -14 -87 -15 -13 -1 -13 -30 2 -331 2 -47 7 -143 10 -215 3 -71 8 -158 9
-193 l4 -63 -62 -28 c-33 -16 -97 -45 -141 -66 -74 -34 -106 -49 -255 -118
-70 -32 -291 -134 -415 -192 -123 -57 -238 -111 -292 -135 -29 -13 -50 -26
-48 -30 2 -3 7 -48 11 -100 5 -70 11 -98 23 -106 11 -8 16 -26 15 -53 0 -34 4
-45 25 -60 24 -16 315 -182 401 -227 19 -11 37 -21 40 -24 3 -3 16 -11 30 -18
14 -6 52 -28 85 -47 33 -20 70 -40 83 -45 34 -14 36 -31 12 -115 -12 -42 -23
-84 -25 -93 -2 -9 -20 -75 -40 -147 -20 -71 -38 -137 -40 -145 -2 -8 -14 -52
-28 -97 -20 -68 -22 -85 -11 -105 7 -12 10 -26 8 -30 -3 -5 -2 -14 3 -20 4 -7
8 -17 10 -23 1 -5 9 -35 18 -65 9 -30 17 -59 19 -65 1 -5 9 -30 16 -55 7 -25
15 -49 16 -55 2 -5 12 -41 24 -80 12 -38 23 -81 26 -94 3 -14 7 -28 10 -32 4
-7 78 -253 99 -329 2 -8 12 -43 22 -77 l17 -63 1753 0 c1732 0 1753 0 1770 20
11 12 24 17 38 14 17 -4 47 22 153 131 l132 137 0 1459 c0 802 -4 1459 -8
1459 -5 0 -17 -7 -28 -15 -10 -8 -26 -15 -36 -15 -9 0 -18 -4 -20 -8 -1 -5
-25 -20 -53 -34 -134 -67 -294 -154 -332 -179 -23 -16 -46 -29 -51 -29 -6 0
-12 -4 -14 -9 -1 -4 -23 -20 -46 -35 l-44 -27 6 68 c3 37 8 88 11 113 2 25 7
70 10 100 3 30 7 75 10 100 5 49 13 135 21 220 2 30 7 75 9 100 17 175 17 180
3 181 -7 0 -22 3 -33 5 -11 2 -40 7 -65 10 -25 3 -67 9 -95 14 -27 5 -70 12
-95 15 -62 7 -119 16 -155 22 -16 3 -41 6 -55 8 -23 2 -92 12 -145 20 -11 2
-56 9 -100 15 -44 6 -91 13 -105 15 -14 3 -88 14 -165 25 -149 21 -186 27
-237 35 -18 3 -53 8 -78 11 -25 2 -56 7 -70 9 -52 9 -106 17 -125 19 -11 1
-92 -10 -180 -25z"/>
</g>
</svg>
